<svg width="32" height="32" viewBox="0 0 32 32" fill="none" xmlns="http://www.w3.org/2000/svg">
<path d="M14.6115 3C8.729 3.8634 4.05389 8.43061 3.04323 14.2567L7.53447 14.2567C8.41884 10.8592 11.1601 8.21046 14.6115 7.45543L14.6115 3Z" fill="#757F99"/>
<path fill-rule="evenodd" clip-rule="evenodd" d="M21.2491 13.3073C21.541 13.6705 21.7853 14.0682 21.9723 14.5075C22.2512 15.1631 22.3907 15.872 22.3907 16.6352V16.6653C22.3907 17.4287 22.2512 18.14 21.9723 18.7996C21.6934 19.4608 21.299 20.0322 20.7872 20.5162C20.2767 21.0026 19.6672 21.383 18.9602 21.6621C18.2522 21.9401 17.4756 22.0797 16.6289 22.0797H12.4857L12.4852 22.0802H12.4013V11.2524H16.6292C17.4762 11.2524 18.2527 11.3891 18.9605 11.662C19.6675 11.9363 20.2771 12.315 20.7875 12.7988C20.9557 12.9581 21.1062 13.1298 21.2491 13.3073ZM18.9915 14.3145C19.1994 14.5264 19.3631 14.78 19.5047 15.0529C19.521 15.0846 19.538 15.1156 19.5551 15.1465C19.5914 15.2125 19.6278 15.2785 19.6567 15.351C19.8174 15.7524 19.8979 16.1915 19.8979 16.6654V16.6967C19.8979 17.1817 19.8172 17.62 19.6567 18.0113C19.497 18.4044 19.2748 18.7437 18.9913 19.0323C18.7069 19.3217 18.3634 19.5425 17.9618 19.6968C17.5583 19.8515 17.114 19.9293 16.6289 19.9293H14.7866V19.7762L14.787 19.7759V13.4026L14.7868 13.4023H16.629C17.1139 13.4023 17.5583 13.482 17.962 13.6421C18.3636 13.802 18.7071 14.0266 18.9915 14.3145Z" fill="#757F99"/>
<path d="M19.0918 7.56362V5.42244C21.5822 5.96516 23.7696 7.31599 25.3668 9.18479L23.8882 10.6652C22.666 9.18342 21.0013 8.07938 19.0918 7.56362Z" fill="#757F99"/>
<path d="M19.0918 5.42244C21.5822 5.96516 23.7696 7.31599 25.3668 9.18479L27 7.54946C24.9855 5.25604 22.2244 3.63283 19.0918 3.07015L19.0918 5.42244Z" fill="#757F99"/>
<path d="M3 18.7305C3.5043 22.0148 5.17427 24.9119 7.57018 27L10.682 23.8848C9.09967 22.589 7.94512 20.791 7.47209 18.7305H3Z" fill="#757F99"/>
</svg>
